<svg width="190" height="72" viewBox="0 0 190 72" fill="none" xmlns="http://www.w3.org/2000/svg">
<path d="M88.4805 25.9385H97.9805C100.588 25.9385 102.637 26.6769 104.034 28.0616C105.152 29.1692 105.804 30.8308 105.804 32.7692C105.804 36.0923 104.034 38.1231 101.333 39.1385L106.363 46.4308H101.054L96.5834 39.8769H93.0442V46.4308H88.4805V25.9385ZM97.6079 35.9077C99.8432 35.9077 101.147 34.7077 101.147 32.9539C101.147 31.0154 99.7501 30 97.6079 30H93.0442V35.9077H97.6079Z" fill="#B3282D"/>
<path d="M109.902 25.9385H125.456V29.9077H114.372V34.1539H124.152V38.1231H114.372V42.4616H125.642V46.4308H109.902V25.9385Z" fill="#B3282D"/>
<path d="M129.647 25.9385H133.931L143.618 38.5846V25.9385H148.088V46.4308H144.176L134.211 33.4154V46.4308H129.647V25.9385Z" fill="#B3282D"/>
<path d="M157.868 30.0923H151.627V25.9385H168.765V30.0923H162.431V46.4308H157.868V30.0923Z" fill="#B3282D"/>
<path d="M176.682 25.7539H180.873L189.721 46.4308H184.971L183.108 41.8154H174.353L172.49 46.4308H167.833L176.682 25.7539ZM181.432 37.8462L178.637 31.2001L175.843 37.8462H181.432Z" fill="#B3282D"/>
<path d="M0.651855 71.6307H72.2744V0.646118H0.651855V71.6307ZM64.1715 63.6H8.7548V8.58458H64.2646L64.1715 63.6Z" fill="#B3282D"/>
<path d="M43.5884 40.8C47.6865 38.9539 49.8286 35.5385 49.8286 30.9231C49.8286 27.7846 48.8041 25.1077 46.9414 23.2616C44.7061 21.0462 41.4463 19.9385 37.3482 19.9385H22.4463V52.1539H30.7355V42.3692H34.8335L41.5394 52.2462H51.3188L43.5884 40.8ZM30.7355 27.5077H36.7894C38.9316 27.5077 41.4463 28.1539 41.4463 31.2C41.4463 33.5077 39.7698 34.8923 36.9757 34.8923H30.7355V27.5077Z" fill="#B3282D"/>
</svg>
