<svg width="16" height="16" viewBox="0 0 16 16" fill="none" xmlns="http://www.w3.org/2000/svg">
<path d="M0 16H16V0H0V16ZM14.1899 14.1899H1.81014V1.78934H14.2107L14.1899 14.1899Z" fill="#B3282D"/>
<path d="M9.7259 9.16571C10.7195 8.70857 11.2388 7.86286 11.2388 6.72C11.2388 5.94286 10.9904 5.28 10.5388 4.82286C9.99687 4.27429 9.20655 4 8.213 4H4.6001V11.9771H6.60978V9.55429H7.60332L9.22913 12H11.6001L9.7259 9.16571ZM6.60978 5.87429H8.07752C8.59687 5.87429 9.20655 6.03429 9.20655 6.78857C9.20655 7.36 8.8001 7.70286 8.12268 7.70286H6.60978V5.87429Z" fill="#B3282D"/>
</svg>
