<svg width="31" height="18" viewBox="0 0 31 18" fill="none" xmlns="http://www.w3.org/2000/svg">
<path d="M0.5 16.5L30.5 16.5L30.5 17.5L0.5 17.5L0.5 16.5ZM0.5 9.5L30.5 9.5L30.5 10.5L0.5 10.5L0.5 9.5ZM0.5 2.5L30.5 2.5L30.5 3.5L0.5 3.5L0.5 2.5ZM0.5 15.5L30.5 15.5L30.5 16.5L0.5 16.5L0.5 15.5ZM0.5 8.5L30.5 8.5L30.5 9.5L0.5 9.5L0.5 8.5ZM0.5 1.5L30.5 1.5L30.5 2.5L0.5 2.5L0.5 1.5ZM0.5 14.5L30.5 14.5L30.5 15.5L0.5 15.5L0.5 14.5ZM0.5 7.5L30.5 7.5L30.5 8.5L0.5 8.5L0.5 7.5ZM0.5 0.5L30.5 0.5L30.5 1.5L0.5 1.5L0.5 0.5Z" fill="white"/>
</svg>
