<svg width="101" height="100" viewBox="0 0 101 100" fill="none" xmlns="http://www.w3.org/2000/svg">
<line x1="2.18557e-08" y1="83.7006" x2="100" y2="83.7006" stroke="#9F9FA0" stroke-width="0.5"/>
<line x1="0.617676" y1="15.1821" x2="100.618" y2="15.1821" stroke="#9F9FA0" stroke-width="0.5"/>
<line x1="15.6821" y1="1.75455e-08" x2="15.6821" y2="100" stroke="#9F9FA0" stroke-width="0.5"/>
<line x1="86.6699" y1="1.85187" x2="86.6699" y2="83.9506" stroke="#9F9FA0" stroke-width="0.5"/>
<path d="M59.61 49.0855C64.3006 44.3949 64.3006 36.79 59.61 32.0995C54.9195 27.4089 47.3145 27.4088 42.6239 32.0994C37.9334 36.79 37.9334 44.395 42.6239 49.0856C47.3145 53.7761 54.9195 53.776 59.61 49.0855Z" stroke="#99999A" stroke-width="0.55" stroke-miterlimit="10"/>
<path d="M40.9915 47.6989L38.4922 50.1954L41.4881 53.1947L43.9874 50.6982L40.9915 47.6989Z" stroke="#99999A" stroke-width="0.55" stroke-miterlimit="10"/>
<path d="M37.6918 49.3904L23.3286 63.7536L28.0747 68.4997L42.4379 54.1365L37.6918 49.3904Z" stroke="#99999A" stroke-width="0.55" stroke-miterlimit="10"/>
<path d="M61.7691 45.372C62.8496 46.0613 64.2902 46.4059 65.7309 46.4059C69.8728 46.4059 73.1143 43.3043 73.1143 39.3411C73.1143 35.3779 69.8728 32.2763 65.7309 32.2763C63.9301 32.2763 62.1292 32.9656 60.8687 33.9994" stroke="#99999A" stroke-width="0.55" stroke-miterlimit="10"/>
<path d="M55.3947 51.7275C59.8411 60.1941 65.8881 69.0133 65.8881 69.0133C65.8881 69.0133 80.6501 47.4943 80.6501 39.3805C80.6501 31.2667 74.0695 24.7405 65.8881 24.7405C61.6196 24.7405 57.8846 26.5043 55.2168 29.3265" stroke="#99999A" stroke-width="0.55" stroke-miterlimit="10"/>
</svg>
