<svg width="91" height="63" viewBox="0 0 91 63" fill="none" xmlns="http://www.w3.org/2000/svg">
<g clip-path="url(#clip0)">
<path d="M73.2492 37.9616V26.0481H52.4375" stroke="#333333" stroke-width="1.4" stroke-miterlimit="10"/>
<path d="M40.8074 26.0481H23.4644V62.1923H73.2491V47.4519" stroke="#333333" stroke-width="1.4" stroke-miterlimit="10"/>
<path d="M68.3523 37.9617H37.1348V47.4521H76.1056V37.9617H68.1482" stroke="#333333" stroke-width="1.4" stroke-miterlimit="10"/>
<path d="M63.4546 47.4519V62.7981" stroke="#333333" stroke-width="1.4" stroke-miterlimit="10"/>
<path d="M49.377 47.4519V62.7981" stroke="#333333" stroke-width="1.4" stroke-miterlimit="10"/>
<path d="M56.5181 47.4519V62.7981" stroke="#333333" stroke-width="1.4" stroke-miterlimit="10"/>
<path d="M73.4529 57.1443H63.6592" stroke="#333333" stroke-width="1.4" stroke-miterlimit="10"/>
<path d="M49.3768 57.1442H39.7871V47.4519" stroke="#333333" stroke-width="1.4" stroke-miterlimit="10"/>
<path d="M46.7237 31.5001C49.879 31.5001 52.4368 28.9688 52.4368 25.8462C52.4368 22.7237 49.879 20.1924 46.7237 20.1924C43.5685 20.1924 41.0107 22.7237 41.0107 25.8462C41.0107 28.9688 43.5685 31.5001 46.7237 31.5001Z" stroke="#333333" stroke-width="1.4" stroke-miterlimit="10"/>
<path d="M32.238 33.1152H28.3613V56.3364H32.238V33.1152Z" stroke="#333333" stroke-width="1.4" stroke-miterlimit="10"/>
<path d="M63.0474 59.1636H49.377" stroke="#333333" stroke-width="1.4" stroke-miterlimit="10"/>
<path d="M32.2372 41.1921H28.7686" stroke="#333333" stroke-width="1.4" stroke-miterlimit="10"/>
<path d="M32.2372 48.6636H28.7686" stroke="#333333" stroke-width="1.4" stroke-miterlimit="10"/>
<path d="M23.4637 36.7499C21.8314 38.5673 19.587 39.9807 16.7305 39.9807C4.89642 39.9807 4.69238 19.3846 4.69238 19.3846C9.79328 19.3846 10.4054 13.7307 10.4054 13.7307H22.8516C22.8516 13.7307 23.4637 19.3846 28.5646 19.3846C28.5646 19.3846 28.5646 22.2115 27.9525 25.8461" stroke="#B22A2E" stroke-width="1.4" stroke-miterlimit="10"/>
<path d="M23.4638 42.202C21.6275 43.4136 19.3831 44.0193 16.7307 44.0193C4.08043 44.0193 0.611816 28.4713 0.611816 19.1828V14.9424H4.89657C6.12079 14.9424 6.52886 13.1251 6.52886 12.9232L7.14097 9.28857H10.8136H26.9324L27.3405 12.9232C27.3405 13.327 27.7486 14.9424 28.9728 14.9424H33.2576V19.1828C33.2576 21.202 33.0535 23.4232 32.6455 25.8463" stroke="#B22A2E" stroke-width="1.4" stroke-miterlimit="10"/>
<path d="M23.4644 9.2884C30.4016 3.83648 39.3792 0.605713 48.9688 0.605713C71.8209 0.605713 90.3881 18.9807 90.3881 41.5961C90.3881 49.2692 88.1437 56.5384 84.4711 62.798" stroke="#B22A2E" stroke-width="1.4" stroke-miterlimit="10"/>
</g>
<defs>
<clipPath id="clip0">
<rect width="91" height="63" fill="white"/>
</clipPath>
</defs>
</svg>
