<svg width="92" height="74" viewBox="0 0 92 74" fill="none" xmlns="http://www.w3.org/2000/svg">
<path d="M28.7318 38.9413L24.8076 42.8611L29.5114 47.5702L33.4356 43.6504L28.7318 38.9413Z" stroke="#55565A" stroke-width="1.4" stroke-miterlimit="10"/>
<path d="M23.5515 41.5971L1 64.1487L8.45179 71.6005L31.0033 49.0489L23.5515 41.5971Z" stroke="#55565A" stroke-width="1.4" stroke-miterlimit="10"/>
<path d="M61.7185 35.4886C63.415 36.5708 65.3136 36.9111 67.5756 36.9111C74.0787 36.9111 79.1683 32.0412 79.1683 25.8186C79.1683 19.5961 74.0787 14.7263 67.5756 14.7263C64.7481 14.7263 61.9206 15.8085 59.9414 17.4318" stroke="#B22A2E" stroke-width="1.4" stroke-miterlimit="10"/>
<path d="M51.3458 45.2669C58.327 58.5601 67.8214 72.4072 67.8214 72.4072C67.8214 72.4072 90.9991 38.6203 90.9991 25.881C90.9991 13.1416 80.6669 2.89478 67.8214 2.89478C61.1194 2.89478 55.2552 5.66413 51.0664 10.0952" stroke="#B22A2E" stroke-width="1.4" stroke-miterlimit="10"/>
<path d="M57.9661 41.1182C65.3307 33.7536 65.3307 21.8133 57.9661 14.4486C50.6014 7.08403 38.661 7.08391 31.2963 14.4485C23.9317 21.8131 23.9317 33.7537 31.2963 41.1184C38.661 48.483 50.6014 48.4829 57.9661 41.1182Z" stroke="#55565A" stroke-width="1.4" stroke-miterlimit="10"/>
</svg>
