<svg width="61" height="68" viewBox="0 0 61 68" fill="none" xmlns="http://www.w3.org/2000/svg">
<g clip-path="url(#clip0)">
<path d="M38.2983 54.5581C42.444 55.7442 43.8259 48.4302 43.8259 48.4302C46.787 47.0465 47.3792 43.093 47.3792 43.093C56.0653 40.7209 53.3016 31.2326 53.3016 31.2326C53.3016 31.2326 57.2498 29.2558 54.486 23.1279C53.6964 21.5465 52.1171 18.3837 51.1301 17" stroke="#55565A" stroke-width="1.4" stroke-miterlimit="10"/>
<path d="M6.31738 21.7442C6.90962 19.1745 7.89667 15.6163 7.89667 15.6163C7.89667 15.6163 4.73809 12.4535 8.29149 9.68609C8.29149 9.68609 8.68631 0.395391 16.5828 2.17446C16.5828 2.17446 21.518 -0.592981 26.4533 1.18609C26.4533 1.18609 32.3756 1.38376 34.3497 4.34888C34.3497 4.34888 38.6928 3.95353 42.0488 6.5233C42.0488 6.5233 47.9711 3.36051 50.5374 4.1512C53.8934 5.33725 57.8417 9.88376 59.4209 12.6512C60.8028 15.221 61.9873 19.7675 54.8805 23.721" stroke="#55565A" stroke-width="1.4" stroke-miterlimit="10"/>
<path d="M4.34242 30.4417C2.96054 33.0114 0.789018 37.1626 0.591607 37.5579C0.394196 38.151 0.394196 39.7323 4.73724 39.7323V42.6975C4.73724 42.6975 2.56572 44.6742 4.73724 45.6626C4.73724 45.6626 3.94759 48.2323 5.9217 48.6277C5.9217 48.6277 6.71135 49.4184 6.51394 50.2091C6.31653 50.9998 4.14501 56.7323 8.68546 57.7207C10.6596 58.1161 15.0026 57.9184 16.1871 57.7207C17.3715 57.523 16.9767 67.8021 16.9767 67.8021" stroke="#55565A" stroke-width="1.4" stroke-miterlimit="10"/>
<path d="M38.2983 39.7327V55.7443C38.2983 57.5234 38.6932 62.2675 39.088 63.4536" stroke="#55565A" stroke-width="1.4" stroke-miterlimit="10"/>
<path d="M28.6245 42.1046C28.6245 42.1046 32.3753 44.0814 34.3494 38.1511" stroke="#55565A" stroke-width="1.4" stroke-miterlimit="10"/>
<path d="M27.8347 30.4417C27.8347 30.4417 25.071 37.7556 32.77 36.1742C32.77 36.1742 35.3364 40.1277 39.8768 40.523C44.4173 40.9184 45.2069 36.7672 45.2069 36.7672" stroke="#55565A" stroke-width="1.4" stroke-miterlimit="10"/>
<path d="M7.89648 15.6162C7.89648 15.6162 9.47577 16.6046 13.424 16.2092C13.424 16.2092 14.0162 19.5697 22.1101 19.7674C22.1101 19.7674 22.3075 25.3023 25.0712 26.8837C25.0712 26.8837 26.2557 32.6162 32.178 30.4418C38.1004 28.2674 37.1133 33.0116 39.8771 33.0116C42.4434 33.2092 43.4305 31.4302 43.4305 31.4302" stroke="#55565A" stroke-width="1.4" stroke-miterlimit="10"/>
<path d="M14.8057 8.10486C14.8057 8.10486 16.5824 3.95369 20.5306 5.13974C24.4788 6.12811 26.0581 4.15137 26.0581 4.15137" stroke="#55565A" stroke-width="1.4" stroke-miterlimit="10"/>
<path d="M22.1104 19.5696C22.1104 19.5696 26.4534 19.1742 28.6249 20.7556" stroke="#55565A" stroke-width="1.4" stroke-miterlimit="10"/>
<path d="M23.2944 13.0465C23.2944 13.0465 26.0582 15.8139 28.6245 14.2325C31.1909 12.6511 30.5986 9.29066 35.3365 9.48834" stroke="#55565A" stroke-width="1.4" stroke-miterlimit="10"/>
<path d="M31.5859 23.1279C31.5859 23.1279 34.5471 25.4999 37.9031 23.1279C41.2591 20.7558 43.8254 22.1395 43.8254 22.1395" stroke="#55565A" stroke-width="1.4" stroke-miterlimit="10"/>
<path d="M16.3848 57.9187C16.3848 57.9187 19.3459 57.7211 22.5045 54.9536" stroke="#55565A" stroke-width="1.4" stroke-miterlimit="10"/>
<path d="M23.0976 23.721C15.0038 23.3256 6.5151 21.3489 6.5151 21.3489C6.5151 21.3489 4.93581 21.3489 4.7384 23.1279C4.54099 24.5117 4.54099 25.5 4.54099 26.4884C4.54099 27.4768 3.35652 29.2559 3.55393 30.0465C3.75134 30.8372 8.48921 32.814 27.2433 34" stroke="#B22A2E" stroke-width="1.4" stroke-miterlimit="10"/>
</g>
<defs>
<clipPath id="clip0">
<rect width="61" height="68" fill="white"/>
</clipPath>
</defs>
</svg>
