<svg width="101" height="100" viewBox="0 0 101 100" fill="none" xmlns="http://www.w3.org/2000/svg">
<line x1="2.18557e-08" y1="83.7007" x2="100" y2="83.7007" stroke="#9F9FA0" stroke-width="0.5"/>
<line x1="0.617188" y1="15.1821" x2="100.617" y2="15.1821" stroke="#9F9FA0" stroke-width="0.5"/>
<line x1="15.6816" y1="1.75455e-08" x2="15.6816" y2="100" stroke="#9F9FA0" stroke-width="0.5"/>
<line x1="86.6699" y1="1.85181" x2="86.6699" y2="83.9506" stroke="#9F9FA0" stroke-width="0.5"/>
<g clip-path="url(#clip0)">
<path d="M36.3765 46.6075H40.7636V28.0421C40.7636 27.2995 41.312 26.7425 42.0431 26.7425C44.7851 26.7425 49.5378 26.5569 51.7313 26.5569C63.7958 26.5569 67.2689 32.1265 67.2689 38.81C67.2689 45.6792 62.3335 50.6919 52.0969 50.6919H46.0646V57.1898H54.4732C55.57 57.1898 56.484 58.1181 56.484 59.232C56.484 60.3459 55.57 61.2742 54.4732 61.2742H46.0646V67.7721C46.0646 68.886 45.1507 69.8143 44.0539 69.8143H42.7743C41.6776 69.8143 40.7636 68.886 40.7636 67.7721V61.2742H36.3765C35.2797 61.2742 34.3657 60.3459 34.3657 59.232C34.3657 58.1181 35.2797 57.1898 36.3765 57.1898H40.7636V50.6919H36.3765C35.2797 50.6919 34.3657 49.7636 34.3657 48.6497C34.5485 47.5358 35.4625 46.6075 36.3765 46.6075ZM46.0646 31.5695V46.7932H52.2797C58.4948 46.7932 62.1507 44.3797 62.1507 39.1814C62.1507 34.1687 59.2259 31.5695 52.4625 31.5695C50.8173 31.3839 48.0754 31.3839 46.0646 31.5695Z" stroke="#55565A" stroke-width="0.8" stroke-miterlimit="10"/>
</g>
<defs>
<clipPath id="clip0">
<rect width="34" height="44" fill="white" transform="translate(34 26)"/>
</clipPath>
</defs>
</svg>
