<svg width="101" height="100" viewBox="0 0 101 100" fill="none" xmlns="http://www.w3.org/2000/svg">
<path d="M65.477 40.7928H51.9595V44.2441H65.477V40.7928Z" stroke="#99999A" stroke-width="0.55" stroke-miterlimit="10"/>
<path d="M65.477 48.5582H51.9595V52.0095H65.477V48.5582Z" stroke="#99999A" stroke-width="0.55" stroke-miterlimit="10"/>
<path d="M65.477 56.3237H51.9595V59.7751H65.477V56.3237Z" stroke="#99999A" stroke-width="0.55" stroke-miterlimit="10"/>
<path d="M65.477 64.0889H51.9595V67.5402H65.477V64.0889Z" stroke="#99999A" stroke-width="0.55" stroke-miterlimit="10"/>
<path d="M50.5219 62.2195H38.73" stroke="#99999A" stroke-width="0.55" stroke-miterlimit="10"/>
<path d="M48.2207 62.2196V56.755" stroke="#99999A" stroke-width="0.55" stroke-miterlimit="10"/>
<path d="M45.0576 62.2196V56.755" stroke="#99999A" stroke-width="0.55" stroke-miterlimit="10"/>
<path d="M28.9507 72.4296H50.5213L55.4105 67.5403" stroke="#99999A" stroke-width="0.55" stroke-miterlimit="10"/>
<path d="M48.2207 72.4296V66.9651" stroke="#99999A" stroke-width="0.55" stroke-miterlimit="10"/>
<path d="M45.0576 72.4296V66.9651" stroke="#99999A" stroke-width="0.55" stroke-miterlimit="10"/>
<path d="M41.749 72.4297V32.7399" stroke="#99999A" stroke-width="0.55" stroke-miterlimit="10"/>
<path d="M50.5219 54.1666H38.73" stroke="#99999A" stroke-width="0.55" stroke-miterlimit="10"/>
<path d="M48.2207 54.1666V48.702" stroke="#99999A" stroke-width="0.55" stroke-miterlimit="10"/>
<path d="M45.0576 54.1666V48.702" stroke="#99999A" stroke-width="0.55" stroke-miterlimit="10"/>
<path d="M50.5219 45.9697H38.73" stroke="#99999A" stroke-width="0.55" stroke-miterlimit="10"/>
<path d="M48.2207 46.1135V40.649" stroke="#99999A" stroke-width="0.55" stroke-miterlimit="10"/>
<path d="M45.0576 46.1135V40.649" stroke="#99999A" stroke-width="0.55" stroke-miterlimit="10"/>
<path d="M50.5219 37.9167H38.73" stroke="#99999A" stroke-width="0.55" stroke-miterlimit="10"/>
<path d="M48.2207 37.9168V32.596" stroke="#99999A" stroke-width="0.55" stroke-miterlimit="10"/>
<path d="M45.0576 37.9168V32.596" stroke="#99999A" stroke-width="0.55" stroke-miterlimit="10"/>
<path d="M39.0171 32.4521H53.1099V37.1976H63.4637V40.5051" stroke="#99999A" stroke-width="0.55" stroke-miterlimit="10"/>
<path d="M63.751 44.2441V47.983" stroke="#99999A" stroke-width="0.55" stroke-miterlimit="10"/>
<path d="M63.751 52.2971V56.0359" stroke="#99999A" stroke-width="0.55" stroke-miterlimit="10"/>
<path d="M63.751 60.2063V63.9452" stroke="#99999A" stroke-width="0.55" stroke-miterlimit="10"/>
<path d="M52.9663 34.6091H61.8822" stroke="#99999A" stroke-width="0.55" stroke-miterlimit="10"/>
<path d="M25.0685 61.7881C27.1335 61.7881 28.8074 60.1142 28.8074 58.0492C28.8074 55.9843 27.1335 54.3104 25.0685 54.3104C23.0036 54.3104 21.3296 55.9843 21.3296 58.0492C21.3296 60.1142 23.0036 61.7881 25.0685 61.7881Z" stroke="#99999A" stroke-width="0.55" stroke-miterlimit="10"/>
<path d="M72.0923 27.9942H79.2825V35.1844" stroke="#99999A" stroke-width="0.55" stroke-miterlimit="10"/>
<path d="M79.2819 27.9942L70.2222 37.0539H66.0519L63.751 39.3547" stroke="#99999A" stroke-width="0.55" stroke-miterlimit="10"/>
<path d="M41.4621 49.421H33.8406L27.8008 55.3169" stroke="#99999A" stroke-width="0.55" stroke-miterlimit="10"/>
<path d="M52.9663 70.1288H75.5435" stroke="#99999A" stroke-width="0.55" stroke-miterlimit="10"/>
<line x1="2.18557e-08" y1="83.7006" x2="100" y2="83.7006" stroke="#9F9FA0" stroke-width="0.5"/>
<line x1="0.617676" y1="15.1821" x2="100.618" y2="15.1821" stroke="#9F9FA0" stroke-width="0.5"/>
<line x1="15.6816" y1="1.75455e-08" x2="15.6816" y2="100" stroke="#9F9FA0" stroke-width="0.5"/>
<line x1="86.6699" y1="1.85187" x2="86.6699" y2="83.9506" stroke="#9F9FA0" stroke-width="0.5"/>
</svg>
