<svg width="80" height="97" viewBox="0 0 80 97" fill="none" xmlns="http://www.w3.org/2000/svg">
<path d="M21.1069 25.5824C21.1069 17.4102 27.575 9.23804 35.4048 9.23804C43.2346 9.23804 49.7027 17.0549 49.7027 25.5824" stroke="#333333" stroke-width="1.4" stroke-miterlimit="10"/>
<path d="M22.1274 31.6228C22.1274 41.9268 27.9147 50.4543 35.404 50.4543C42.553 50.4543 48.6806 41.9268 48.6806 31.6228" stroke="#333333" stroke-width="1.4" stroke-miterlimit="10"/>
<path d="M18.042 24.5166C18.042 28.0697 25.8718 30.9122 35.4037 30.9122C44.9356 30.9122 52.7654 28.0697 52.7654 24.5166" stroke="#333333" stroke-width="1.4" stroke-miterlimit="10"/>
<path d="M37.7876 24.1612V14.2125C38.8089 13.1465 39.8302 11.7253 40.1706 9.94873" stroke="#333333" stroke-width="1.4" stroke-miterlimit="10"/>
<path d="M33.0212 24.1612V14.2125C31.9999 13.5018 30.9786 11.7253 30.6382 9.94873" stroke="#333333" stroke-width="1.4" stroke-miterlimit="10"/>
<path d="M41.8726 47.9672V54.7181L35.0641 61.8244L27.5747 54.0075V47.2566" stroke="#333333" stroke-width="1.4" stroke-miterlimit="10"/>
<path d="M16.0005 58.9817V84.5641" stroke="#333333" stroke-width="1.4" stroke-miterlimit="10"/>
<path d="M23.4893 55.4286V83.1429H46.9786V55.4286L41.8722 52.9414" stroke="#333333" stroke-width="1.4" stroke-miterlimit="10"/>
<path d="M4.42529 84.2087V70.7069C4.42529 65.7325 8.16997 63.2454 10.2125 61.8241C12.2551 60.4029 27.9147 53.2966 27.9147 53.2966" stroke="#333333" stroke-width="1.4" stroke-miterlimit="10"/>
<path d="M70.1278 42.2822H58.2129V47.6119H70.1278V42.2822Z" stroke="#333333" stroke-width="1.4" stroke-miterlimit="10"/>
<path d="M73.8725 45.1245H76.9363V83.1428H51.064V45.1245H54.8086" stroke="#333333" stroke-width="1.4" stroke-miterlimit="10"/>
<path d="M57.1909 52.5862H71.1484" stroke="#B22A2E" stroke-width="1.4" stroke-miterlimit="10"/>
<path d="M57.1909 57.9158H71.1484" stroke="#B22A2E" stroke-width="1.4" stroke-miterlimit="10"/>
<path d="M57.1909 62.8899H71.1484" stroke="#B22A2E" stroke-width="1.4" stroke-miterlimit="10"/>
<path d="M57.1909 68.2197H71.1484" stroke="#B22A2E" stroke-width="1.4" stroke-miterlimit="10"/>
<path d="M73.5318 78.5237H66.3828" stroke="#B22A2E" stroke-width="1.4" stroke-miterlimit="10"/>
</svg>
