<svg width="101" height="92" viewBox="0 0 101 92" fill="none" xmlns="http://www.w3.org/2000/svg">
<g clip-path="url(#clip0)">
<path d="M76.6433 31.6777H53.5854V37.7437H76.6433V31.6777Z" stroke="#333333" stroke-width="1.4" stroke-miterlimit="10"/>
<path d="M76.6433 45.4945H53.5854V51.5605H76.6433V45.4945Z" stroke="#333333" stroke-width="1.4" stroke-miterlimit="10"/>
<path d="M76.6433 59.6482H53.5854V65.7142H76.6433V59.6482Z" stroke="#333333" stroke-width="1.4" stroke-miterlimit="10"/>
<path d="M76.6433 73.4653H53.5854V79.5313H76.6433V73.4653Z" stroke="#333333" stroke-width="1.4" stroke-miterlimit="10"/>
<path d="M51.3123 69.7581H31.1772" stroke="#333333" stroke-width="1.4" stroke-miterlimit="10"/>
<path d="M47.415 69.7583V60.3224" stroke="#333333" stroke-width="1.4" stroke-miterlimit="10"/>
<path d="M41.5688 69.7583V60.3224" stroke="#333333" stroke-width="1.4" stroke-miterlimit="10"/>
<path d="M14.2891 87.9561H51.3116L59.4305 79.1942" stroke="#333333" stroke-width="1.4" stroke-miterlimit="10"/>
<path d="M47.415 87.9562V78.5203" stroke="#333333" stroke-width="1.4" stroke-miterlimit="10"/>
<path d="M41.5688 87.9562V78.5203" stroke="#333333" stroke-width="1.4" stroke-miterlimit="10"/>
<path d="M36.0483 87.9562V17.8609" stroke="#333333" stroke-width="1.4" stroke-miterlimit="10"/>
<path d="M51.3123 55.6044H31.1772" stroke="#333333" stroke-width="1.4" stroke-miterlimit="10"/>
<path d="M47.415 55.6043V46.1684" stroke="#333333" stroke-width="1.4" stroke-miterlimit="10"/>
<path d="M41.5688 55.6043V46.1684" stroke="#333333" stroke-width="1.4" stroke-miterlimit="10"/>
<path d="M51.3123 41.1134H31.1772" stroke="#333333" stroke-width="1.4" stroke-miterlimit="10"/>
<path d="M47.415 41.1136V31.6777" stroke="#333333" stroke-width="1.4" stroke-miterlimit="10"/>
<path d="M41.5688 41.1136V31.6777" stroke="#333333" stroke-width="1.4" stroke-miterlimit="10"/>
<path d="M51.3123 26.9597H31.1772" stroke="#333333" stroke-width="1.4" stroke-miterlimit="10"/>
<path d="M47.415 26.9596V17.5237" stroke="#333333" stroke-width="1.4" stroke-miterlimit="10"/>
<path d="M41.5688 26.9596V17.5237" stroke="#333333" stroke-width="1.4" stroke-miterlimit="10"/>
<path d="M31.502 17.1868H55.5341V25.6117H73.3958V31.3406" stroke="#333333" stroke-width="1.4" stroke-miterlimit="10"/>
<path d="M73.7207 38.0807V44.8206" stroke="#333333" stroke-width="1.4" stroke-miterlimit="10"/>
<path d="M73.7207 52.2344V58.9744" stroke="#333333" stroke-width="1.4" stroke-miterlimit="10"/>
<path d="M73.7207 66.3882V73.1281" stroke="#333333" stroke-width="1.4" stroke-miterlimit="10"/>
<path d="M55.209 20.8936H70.7974" stroke="#333333" stroke-width="1.4" stroke-miterlimit="10"/>
<path d="M7.46881 69.4212C11.056 69.4212 13.964 66.4036 13.964 62.6813C13.964 58.9589 11.056 55.9413 7.46881 55.9413C3.88162 55.9413 0.973633 58.9589 0.973633 62.6813C0.973633 66.4036 3.88162 69.4212 7.46881 69.4212Z" stroke="#B22A2E" stroke-width="1.4" stroke-miterlimit="10"/>
<path d="M88.0098 9.09879H100.351V21.9046" stroke="#B22A2E" stroke-width="1.4" stroke-miterlimit="10"/>
<path d="M100.351 9.09879L84.7625 25.2746H77.6178L73.7207 29.3186" stroke="#B22A2E" stroke-width="1.4" stroke-miterlimit="10"/>
<path d="M35.723 47.1795H22.7326L12.3403 57.9634" stroke="#B22A2E" stroke-width="1.4" stroke-miterlimit="10"/>
<path d="M55.209 84.2491H94.18" stroke="#333333" stroke-width="1.4" stroke-miterlimit="10"/>
</g>
<defs>
<clipPath id="clip0">
<rect width="101" height="92" fill="white"/>
</clipPath>
</defs>
</svg>
