<svg width="101" height="100" viewBox="0 0 101 100" fill="none" xmlns="http://www.w3.org/2000/svg">
<line x1="2.18557e-08" y1="83.7007" x2="100" y2="83.7007" stroke="#9F9FA0" stroke-width="0.5"/>
<line y1="-0.25" x2="100.005" y2="-0.25" transform="matrix(0.99995 0.0099995 0 1 0.617676 15.4321)" stroke="#9F9FA0" stroke-width="0.5"/>
<line x1="15.6821" y1="1.75455e-08" x2="15.6821" y2="100" stroke="#9F9FA0" stroke-width="0.5"/>
<line y1="-0.25" x2="82.1049" y2="-0.25" transform="matrix(0.0121795 0.999926 -1 0 86.4199 1.85181)" stroke="#9F9FA0" stroke-width="0.5"/>
<path d="M40.9915 47.699L38.4922 50.1956L41.4881 53.1948L43.9874 50.6983L40.9915 47.699Z" stroke="#55565A" stroke-width="0.8" stroke-miterlimit="10"/>
<path d="M37.6918 49.3905L23.3286 63.7537L28.0747 68.4997L42.4379 54.1365L37.6918 49.3905Z" stroke="#55565A" stroke-width="0.8" stroke-miterlimit="10"/>
<path d="M62.0005 45.5C63.081 46.1892 64.2902 46.406 65.7309 46.406C69.8728 46.406 73.1143 43.3043 73.1143 39.3411C73.1143 35.3779 69.8728 32.2764 65.7309 32.2764C63.9301 32.2764 62.1292 32.9656 60.8687 33.9995" stroke="#B22A2E" stroke-width="0.8" stroke-miterlimit="10"/>
<path d="M55.3947 51.7278C59.8411 60.1943 65.8881 69.0136 65.8881 69.0136C65.8881 69.0136 80.6501 47.4945 80.6501 39.3807C80.6501 31.267 74.0695 24.7407 65.8881 24.7407C61.6196 24.7407 57.8846 26.5045 55.2168 29.3267" stroke="#B22A2E" stroke-width="0.8" stroke-miterlimit="10"/>
<path d="M59.6105 49.0855C64.3011 44.395 64.3011 36.7901 59.6105 32.0995C54.92 27.409 47.315 27.4089 42.6244 32.0994C37.9339 36.79 37.9339 44.395 42.6244 49.0856C47.315 53.7762 54.92 53.7761 59.6105 49.0855Z" stroke="#55565A" stroke-width="0.8" stroke-miterlimit="10"/>
</svg>
